<svg width="25" height="6" viewBox="0 0 25 6" fill="none" xmlns="http://www.w3.org/2000/svg">
<path d="M0 3L4.10997 5.3729L4.10998 0.627106L0 3ZM3.75 3.411L6.25 3.411L6.25 2.589L3.75 2.589L3.75 3.411ZM8.75 3.411L11.25 3.411L11.25 2.589L8.75 2.589L8.75 3.411ZM13.75 3.411L16.25 3.411L16.25 2.58901L13.75 2.589L13.75 3.411ZM18.75 3.411L21.25 3.411L21.25 2.58901L18.75 2.58901L18.75 3.411ZM23.75 3.411L25 3.411L25 2.58901L23.75 2.58901L23.75 3.411Z" fill="url(#paint0_linear_77_1310)" fill-opacity="0.7"/>
<defs>
<linearGradient id="paint0_linear_77_1310" x1="2.75" y1="3.09413" x2="2.77909" y2="4.46983" gradientUnits="userSpaceOnUse">
<stop stop-color="#15BFFD"/>
<stop offset="1" stop-color="#9C37FD"/>
</linearGradient>
</defs>
</svg>
